<svg width="29" height="29" viewBox="0 0 29 29" fill="none" xmlns="http://www.w3.org/2000/svg">
<g clip-path="url(#clip0_226_13940)">
<path d="M14.5 0.719727C6.7692 0.719727 0.5 6.98892 0.5 14.7197C0.5 22.4505 6.7692 28.7197 14.5 28.7197C22.2308 28.7197 28.5 22.4505 28.5 14.7197C28.5 6.98892 22.2308 0.719727 14.5 0.719727ZM14.7967 22.8709C14.7965 22.8709 14.7969 22.8709 14.7967 22.8709H14.7933C13.3909 22.8703 12.0128 22.5187 10.7889 21.8513L6.34708 23.0162L7.53589 18.6754C6.80252 17.4052 6.41672 15.9641 6.41736 14.4877C6.41928 9.8692 10.1782 6.11179 14.7967 6.11179C17.0381 6.11264 19.142 6.98508 20.7239 8.56824C22.306 10.1516 23.1767 12.2562 23.1759 14.4944C23.174 19.1131 19.4146 22.8709 14.7967 22.8709Z" fill="white"/>
<path d="M14.7996 7.52661C10.958 7.52661 7.83374 10.6496 7.83203 14.4884C7.8316 15.8039 8.19989 17.085 8.89694 18.1935L9.0625 18.4568L8.35883 21.0261L10.9947 20.3348L11.2491 20.4856C12.3183 21.1201 13.5441 21.4557 14.7938 21.4561H14.7966C18.6352 21.4561 21.7594 18.3329 21.7611 14.4939C21.7617 12.6335 21.038 10.8843 19.7231 9.56842C18.4083 8.2525 16.6596 7.52725 14.7996 7.52661ZM18.896 17.4817C18.7215 17.9704 17.8851 18.4167 17.4829 18.4769C17.1221 18.5308 16.6658 18.5532 16.1642 18.394C15.86 18.2975 15.4701 18.1687 14.9705 17.9531C12.8703 17.0465 11.4987 14.9325 11.394 14.7928C11.2893 14.6531 10.5391 13.6578 10.5391 12.6275C10.5391 11.5974 11.08 11.0909 11.2718 10.8816C11.4638 10.672 11.6907 10.6197 11.8302 10.6197C11.9697 10.6197 12.1094 10.6209 12.2314 10.6269C12.36 10.6333 12.5326 10.578 12.7024 10.9862C12.877 11.4054 13.2957 12.4355 13.348 12.5401C13.4003 12.645 13.4352 12.7672 13.3655 12.9069C13.2957 13.0466 13.0637 13.3481 12.8421 13.6228C12.7492 13.7379 12.6281 13.8405 12.7503 14.05C12.8723 14.2594 13.2927 14.9449 13.9149 15.4999C14.7148 16.213 15.3894 16.4338 15.5987 16.5387C15.8079 16.6434 15.9301 16.6259 16.0522 16.4864C16.1742 16.3467 16.5756 15.8752 16.7151 15.6656C16.8546 15.4561 16.9943 15.4911 17.1862 15.561C17.3782 15.6306 18.4074 16.1371 18.6168 16.2418C18.8261 16.3467 18.9656 16.399 19.018 16.4864C19.0705 16.5738 19.0705 16.9927 18.896 17.4817Z" fill="white"/>
</g>
<defs>
<clipPath id="clip0_226_13940">
<rect width="28" height="28" fill="white" transform="translate(0.5 0.719727)"/>
</clipPath>
</defs>
</svg>
