<svg width="29" height="29" viewBox="0 0 29 29" fill="none" xmlns="http://www.w3.org/2000/svg">
<g clip-path="url(#clip0_226_13943)">
<path d="M17.1797 14.7197C17.1797 16.1997 15.98 17.3994 14.5 17.3994C13.02 17.3994 11.8203 16.1997 11.8203 14.7197C11.8203 13.2397 13.02 12.04 14.5 12.04C15.98 12.04 17.1797 13.2397 17.1797 14.7197Z" fill="white"/>
<path d="M20.7677 9.97855C20.6389 9.62949 20.4334 9.31354 20.1664 9.0542C19.907 8.78717 19.5913 8.58167 19.242 8.45285C18.9587 8.34283 18.5332 8.21188 17.7494 8.17621C16.9016 8.13754 16.6473 8.12921 14.5009 8.12921C12.3542 8.12921 12.0999 8.13733 11.2523 8.17599C10.4685 8.21188 10.0428 8.34283 9.7597 8.45285C9.41043 8.58167 9.09448 8.78717 8.83536 9.0542C8.56833 9.31354 8.36282 9.62927 8.2338 9.97855C8.12378 10.2618 7.99283 10.6876 7.95715 11.4713C7.91849 12.319 7.91016 12.5732 7.91016 14.7199C7.91016 16.8664 7.91849 17.1206 7.95715 17.9685C7.99283 18.7523 8.12378 19.1778 8.2338 19.4611C8.36282 19.8103 8.56812 20.1261 8.83514 20.3854C9.09448 20.6524 9.41022 20.8579 9.75949 20.9868C10.0428 21.097 10.4685 21.2279 11.2523 21.2636C12.0999 21.3023 12.3539 21.3104 14.5006 21.3104C16.6476 21.3104 16.9018 21.3023 17.7492 21.2636C18.533 21.2279 18.9587 21.097 19.242 20.9868C19.9431 20.7163 20.4973 20.1622 20.7677 19.4611C20.8777 19.1778 21.0087 18.7523 21.0446 17.9685C21.0832 17.1206 21.0913 16.8664 21.0913 14.7199C21.0913 12.5732 21.0832 12.319 21.0446 11.4713C21.0089 10.6876 20.8779 10.2618 20.7677 9.97855ZM14.5009 18.8477C12.2209 18.8477 10.3726 16.9997 10.3726 14.7197C10.3726 12.4397 12.2209 10.5916 14.5009 10.5916C16.7806 10.5916 18.6289 12.4397 18.6289 14.7197C18.6289 16.9997 16.7806 18.8477 14.5009 18.8477ZM18.7921 11.3932C18.2593 11.3932 17.8274 10.9612 17.8274 10.4284C17.8274 9.89566 18.2593 9.46371 18.7921 9.46371C19.3249 9.46371 19.7568 9.89566 19.7568 10.4284C19.7566 10.9612 19.3249 11.3932 18.7921 11.3932Z" fill="white"/>
<path d="M14.5 0.719727C6.7692 0.719727 0.5 6.98892 0.5 14.7197C0.5 22.4505 6.7692 28.7197 14.5 28.7197C22.2308 28.7197 28.5 22.4505 28.5 14.7197C28.5 6.98892 22.2308 0.719727 14.5 0.719727ZM22.4906 18.0341C22.4517 18.8899 22.3156 19.4741 22.1169 19.9855C21.6993 21.0654 20.8457 21.919 19.7658 22.3367C19.2546 22.5353 18.6701 22.6712 17.8146 22.7103C16.9573 22.7494 16.6834 22.7588 14.5002 22.7588C12.3168 22.7588 12.0431 22.7494 11.1856 22.7103C10.3301 22.6712 9.74561 22.5353 9.23441 22.3367C8.69778 22.1348 8.21201 21.8184 7.81039 21.4093C7.40152 21.0079 7.08514 20.5219 6.88327 19.9855C6.6846 19.4743 6.54852 18.8899 6.50964 18.0343C6.47012 17.1768 6.46094 16.903 6.46094 14.7197C6.46094 12.5365 6.47012 12.2626 6.50943 11.4054C6.54831 10.5496 6.68417 9.96533 6.88284 9.45392C7.08472 8.91751 7.40131 8.43152 7.81039 8.03012C8.21179 7.62103 8.69778 7.30466 9.23419 7.10278C9.74561 6.90411 10.3299 6.76825 11.1856 6.72916C12.0429 6.69006 12.3168 6.68066 14.5 6.68066C16.6832 6.68066 16.9571 6.69006 17.8144 6.72937C18.6701 6.76825 19.2544 6.90411 19.7658 7.10257C20.3022 7.30444 20.7882 7.62103 21.1898 8.03012C21.5987 8.43173 21.9153 8.91751 22.1169 9.45392C22.3158 9.96533 22.4517 10.5496 22.4908 11.4054C22.5299 12.2626 22.5391 12.5365 22.5391 14.7197C22.5391 16.903 22.5299 17.1768 22.4906 18.0341Z" fill="white"/>
</g>
<defs>
<clipPath id="clip0_226_13943">
<rect width="28" height="28" fill="white" transform="translate(0.5 0.719727)"/>
</clipPath>
</defs>
</svg>
